<?xml version="1.0" encoding="UTF-8" standalone="no"?>
<svg
   xmlns:dc="http://purl.org/dc/elements/1.1/"
   xmlns:cc="http://creativecommons.org/ns#"
   xmlns:rdf="http://www.w3.org/1999/02/22-rdf-syntax-ns#"
   xmlns:svg="http://www.w3.org/2000/svg"
   xmlns="http://www.w3.org/2000/svg"
   xmlns:xlink="http://www.w3.org/1999/xlink"
   xmlns:sodipodi="http://sodipodi.sourceforge.net/DTD/sodipodi-0.dtd"
   xmlns:inkscape="http://www.inkscape.org/namespaces/inkscape"
   width="500"
   height="300"
   viewBox="0 0 500 300"
   version="1.1"
   id="svg3914"
   sodipodi:docname="app-promo.svg"
   inkscape:version="0.92.4 (5da689c313, 2019-01-14)">
  <metadata
     id="metadata3918">
    <rdf:RDF>
      <cc:Work
         rdf:about="">
        <dc:format>image/svg+xml</dc:format>
        <dc:type
           rdf:resource="http://purl.org/dc/dcmitype/StillImage" />
      </cc:Work>
    </rdf:RDF>
  </metadata>
  <sodipodi:namedview
     pagecolor="#ffffff"
     bordercolor="#666666"
     borderopacity="1"
     objecttolerance="10"
     gridtolerance="10"
     guidetolerance="10"
     inkscape:pageopacity="0"
     inkscape:pageshadow="2"
     inkscape:window-width="1920"
     inkscape:window-height="1013"
     id="namedview3916"
     showgrid="false"
     inkscape:zoom="0.678"
     inkscape:cx="250"
     inkscape:cy="150"
     inkscape:window-x="-9"
     inkscape:window-y="-9"
     inkscape:window-maximized="1"
     inkscape:current-layer="svg3914" />
  <defs
     id="defs3910">
    <pattern
       inkscape:collect="always"
       xlink:href="#promoApp"
       id="pattern4463"
       patternTransform="scale(3.2499905)" />
    <pattern
       id="promoApp"
       x="0"
       y="0"
       width="34"
       height="44"
       patternUnits="userSpaceOnUse">
      <g
         fill-rule="evenodd"
         id="g3907">
        <g
           id="hexagons"
           fill="#FFCC00">
          <path
             d="M1 6.2C.72 5.55.38 4.94 0 4.36v13.28c.38-.58.72-1.2 1-1.84A12.04 12.04 0 0 0 7.2 22 12.04 12.04 0 0 0 1 28.2c-.28-.65-.62-1.26-1-1.84v13.28c.38-.58.72-1.2 1-1.84A12.04 12.04 0 0 0 7.2 44h21.6a12.05 12.05 0 0 0 5.2-4.36V26.36A12.05 12.05 0 0 0 28.8 22a12.05 12.05 0 0 0 5.2-4.36V4.36A12.05 12.05 0 0 0 28.8 0H7.2A12.04 12.04 0 0 0 1 6.2zM17.36 23H12a10 10 0 1 0 0 20h5.36a11.99 11.99 0 0 1 0-20zm1.28-2H24a10 10 0 1 0 0-20h-5.36a11.99 11.99 0 0 1 0 20zM12 1a10 10 0 1 0 0 20 10 10 0 0 0 0-20zm0 14a2 2 0 1 0 0 4 2 2 0 0 0 0-4zm-3.46-2a2 2 0 1 0-3.47 2 2 2 0 0 0 3.47-2zm0-4a2 2 0 1 0-3.47-2 2 2 0 0 0 3.47 2zM12 7a2 2 0 1 0 0-4 2 2 0 0 0 0 4zm3.46 2a2 2 0 1 0 3.47-2 2 2 0 0 0-3.47 2zm0 4a2 2 0 1 0 3.47 2 2 2 0 0 0-3.47-2zM24 43a10 10 0 1 0 0-20 10 10 0 0 0 0 20zm0-14a2 2 0 1 0 0-4 2 2 0 0 0 0 4zm3.46 2a2 2 0 1 0 3.47-2 2 2 0 0 0-3.47 2zm0 4a2 2 0 1 0 3.47 2 2 2 0 0 0-3.47-2zM24 37a2 2 0 1 0 0 4 2 2 0 0 0 0-4zm-3.46-2a2 2 0 1 0-3.47 2 2 2 0 0 0 3.47-2zm0-4a2 2 0 1 0-3.47-2 2 2 0 0 0 3.47 2z"
             id="path3904" />
        </g>
      </g>
    </pattern>
  </defs>
  <rect
     id="rect1"
     x="0"
     y="0"
     width="500"
     height="300"
     fill="#2ecc71" />
  <rect
     id="rect2"
     x="0"
     y="0"
     width="500"
     height="300"
     style="fill:url(#pattern4463)" />
</svg>
