<?xml version="1.0" encoding="UTF-8" standalone="no"?>
<svg
   xmlns:dc="http://purl.org/dc/elements/1.1/"
   xmlns:cc="http://creativecommons.org/ns#"
   xmlns:rdf="http://www.w3.org/1999/02/22-rdf-syntax-ns#"
   xmlns:svg="http://www.w3.org/2000/svg"
   xmlns="http://www.w3.org/2000/svg"
   xmlns:xlink="http://www.w3.org/1999/xlink"
   xmlns:sodipodi="http://sodipodi.sourceforge.net/DTD/sodipodi-0.dtd"
   xmlns:inkscape="http://www.inkscape.org/namespaces/inkscape"
   width="500"
   height="300"
   viewBox="0 0 500 300"
   version="1.1"
   id="svg12"
   sodipodi:docname="blog.svg"
   inkscape:version="0.92.4 (5da689c313, 2019-01-14)">
  <metadata
     id="metadata16">
    <rdf:RDF>
      <cc:Work
         rdf:about="">
        <dc:format>image/svg+xml</dc:format>
        <dc:type
           rdf:resource="http://purl.org/dc/dcmitype/StillImage" />
      </cc:Work>
    </rdf:RDF>
  </metadata>
  <sodipodi:namedview
     pagecolor="#ffffff"
     bordercolor="#666666"
     borderopacity="1"
     objecttolerance="10"
     gridtolerance="10"
     guidetolerance="10"
     inkscape:pageopacity="0"
     inkscape:pageshadow="2"
     inkscape:window-width="1920"
     inkscape:window-height="1013"
     id="namedview14"
     showgrid="false"
     inkscape:zoom="0.678"
     inkscape:cx="250"
     inkscape:cy="150"
     inkscape:window-x="-9"
     inkscape:window-y="-9"
     inkscape:window-maximized="1"
     inkscape:current-layer="svg12" />
  <defs
     id="defs8">
    <pattern
       inkscape:collect="always"
       xlink:href="#blog"
       id="pattern1539"
       patternTransform="scale(2.7894755)" />
    <pattern
       id="blog"
       x="0"
       y="0"
       width="48"
       height="32"
       patternUnits="userSpaceOnUse">
      <g
         fill-rule="evenodd"
         id="g5">
        <g
           id="hexagons"
           fill="#f92658"
           fill-rule="nonzero">
          <path
             d="M27 32c0-3.314 2.686-6 6-6 5.523 0 10-4.477 10-10S38.523 6 33 6c-3.314 0-6-2.686-6-6h2c0 2.21 1.79 4 4 4 6.627 0 12 5.373 12 12s-5.373 12-12 12c-2.21 0-4 1.79-4 4h-2zm-6 0c0-3.314-2.686-6-6-6-5.523 0-10-4.477-10-10S9.477 6 15 6c3.314 0 6-2.686 6-6h-2c0 2.21-1.79 4-4 4C8.373 4 3 9.373 3 16s5.373 12 12 12c2.21 0 4 1.79 4 4h2z"
             id="path2" />
        </g>
      </g>
    </pattern>
  </defs>
  <rect
     id="rect1"
     x="0"
     y="0"
     width="500"
     height="300"
     fill="#75715e" />
  <rect
     id="rect2"
     x="0"
     y="0"
     width="500"
     height="300"
     style="fill:url(#pattern1539)" />
</svg>
