<?xml version="1.0" encoding="UTF-8" standalone="no"?>
<svg
   xmlns:dc="http://purl.org/dc/elements/1.1/"
   xmlns:cc="http://creativecommons.org/ns#"
   xmlns:rdf="http://www.w3.org/1999/02/22-rdf-syntax-ns#"
   xmlns:svg="http://www.w3.org/2000/svg"
   xmlns="http://www.w3.org/2000/svg"
   xmlns:xlink="http://www.w3.org/1999/xlink"
   xmlns:sodipodi="http://sodipodi.sourceforge.net/DTD/sodipodi-0.dtd"
   xmlns:inkscape="http://www.inkscape.org/namespaces/inkscape"
   width="500"
   height="300"
   viewBox="0 0 500 300"
   version="1.1"
   id="svg841"
   sodipodi:docname="drum-machine.svg"
   inkscape:version="0.92.4 (5da689c313, 2019-01-14)">
  <metadata
     id="metadata845">
    <rdf:RDF>
      <cc:Work
         rdf:about="">
        <dc:format>image/svg+xml</dc:format>
        <dc:type
           rdf:resource="http://purl.org/dc/dcmitype/StillImage" />
        <dc:title></dc:title>
      </cc:Work>
    </rdf:RDF>
  </metadata>
  <sodipodi:namedview
     pagecolor="#ffffff"
     bordercolor="#666666"
     borderopacity="1"
     objecttolerance="10"
     gridtolerance="10"
     guidetolerance="10"
     inkscape:pageopacity="0"
     inkscape:pageshadow="2"
     inkscape:window-width="1920"
     inkscape:window-height="1013"
     id="namedview843"
     showgrid="false"
     inkscape:zoom="1"
     inkscape:cx="151.25239"
     inkscape:cy="63.595187"
     inkscape:window-x="-9"
     inkscape:window-y="-9"
     inkscape:window-maximized="1"
     inkscape:current-layer="svg841" />
  <defs
     id="defs837">
    <pattern
       inkscape:collect="always"
       xlink:href="#hexagon"
       id="pattern1563"
       patternTransform="scale(4.8874584)" />
    <pattern
       id="hexagon"
       x="0"
       y="0"
       width="28"
       height="49"
       patternUnits="userSpaceOnUse">
      <g
         fill-rule="evenodd"
         id="g834">
        <g
           id="hexagons"
           fill="#ffa81b"
           fill-rule="nonzero">
          <path
             d="M13.99 9.25l13 7.5v15l-13 7.5L1 31.75v-15l12.99-7.5zM3 17.9v12.7l10.99 6.34 11-6.35V17.9l-11-6.34L3 17.9zM0 15l12.98-7.5V0h-2v6.35L0 12.69v2.3zm0 18.5L12.98 41v8h-2v-6.85L0 35.81v-2.3zM15 0v7.5L27.99 15H28v-2.31h-.01L17 6.35V0h-2zm0 49v-8l12.99-7.5H28v2.31h-.01L17 42.15V49h-2z"
             id="path831" />
        </g>
      </g>
    </pattern>
  </defs>
  <rect
     id="rect1"
     x="0"
     y="0"
     width="500"
     height="300"
     fill="#6d6e6a" />
  <rect
     id="rect2"
     x="0"
     y="0"
     width="500"
     height="300"
     style="fill:url(#pattern1563)" />
</svg>
