<?xml version="1.0" encoding="UTF-8" standalone="no"?>
<svg
   xmlns:dc="http://purl.org/dc/elements/1.1/"
   xmlns:cc="http://creativecommons.org/ns#"
   xmlns:rdf="http://www.w3.org/1999/02/22-rdf-syntax-ns#"
   xmlns:svg="http://www.w3.org/2000/svg"
   xmlns="http://www.w3.org/2000/svg"
   xmlns:xlink="http://www.w3.org/1999/xlink"
   xmlns:sodipodi="http://sodipodi.sourceforge.net/DTD/sodipodi-0.dtd"
   xmlns:inkscape="http://www.inkscape.org/namespaces/inkscape"
   width="500"
   height="300"
   viewBox="0 0 500 300"
   version="1.1"
   id="svg3326"
   sodipodi:docname="md-app.svg"
   inkscape:version="0.92.4 (5da689c313, 2019-01-14)">
  <metadata
     id="metadata3330">
    <rdf:RDF>
      <cc:Work
         rdf:about="">
        <dc:format>image/svg+xml</dc:format>
        <dc:type
           rdf:resource="http://purl.org/dc/dcmitype/StillImage" />
      </cc:Work>
    </rdf:RDF>
  </metadata>
  <sodipodi:namedview
     pagecolor="#ffffff"
     bordercolor="#666666"
     borderopacity="1"
     objecttolerance="10"
     gridtolerance="10"
     guidetolerance="10"
     inkscape:pageopacity="0"
     inkscape:pageshadow="2"
     inkscape:window-width="1920"
     inkscape:window-height="1013"
     id="namedview3328"
     showgrid="false"
     inkscape:zoom="0.678"
     inkscape:cx="250"
     inkscape:cy="150"
     inkscape:window-x="-9"
     inkscape:window-y="-9"
     inkscape:window-maximized="1"
     inkscape:current-layer="svg3326" />
  <defs
     id="defs3322">
    <pattern
       inkscape:collect="always"
       xlink:href="#hexagon"
       id="pattern3875"
       patternTransform="scale(1.7172673)" />
    <pattern
       id="hexagon"
       x="0"
       y="0"
       width="152"
       height="152"
       patternUnits="userSpaceOnUse">
      <g
         id="g3319">
        <g
           id="hexagons"
           fill="#ffa81b">
          <path
             d="M152 150v2H0v-2h28v-8H8v-20H0v-2h8V80h42v20h20v42H30v8h90v-8H80v-42h20V80h42v40h8V30h-8v40h-42V50H80V8h40V0h2v8h20v20h8V0h2v150zm-2 0v-28h-8v20h-20v8h28zM82 30v18h18V30H82zm20 18h20v20h18V30h-20V10H82v18h20v20zm0 2v18h18V50h-18zm20-22h18V10h-18v18zm-54 92v-18H50v18h18zm-20-18H28V82H10v38h20v20h38v-18H48v-20zm0-2V82H30v18h18zm-20 22H10v18h18v-18zm54 0v18h38v-20h20V82h-18v20h-20v20H82zm18-20H82v18h18v-18zm2-2h18V82h-18v18zm20 40v-18h18v18h-18zM30 0h-2v8H8v20H0v2h8v40h42V50h20V8H30V0zm20 48h18V30H50v18zm18-20H48v20H28v20H10V30h20V10h38v18zM30 50h18v18H30V50zm-2-40H10v18h18V10z"
             id="path3316" />
        </g>
      </g>
    </pattern>
  </defs>
  <rect
     id="rect1"
     x="0"
     y="0"
     width="500"
     height="300"
     fill="#6d6e6a" />
  <rect
     id="rect2"
     x="0"
     y="0"
     width="500"
     height="300"
     style="fill:url(#pattern3875)" />
</svg>
