<?xml version="1.0" encoding="UTF-8" standalone="no"?>
<!-- Created with Inkscape (http://www.inkscape.org/) -->

<svg
   xmlns:dc="http://purl.org/dc/elements/1.1/"
   xmlns:cc="http://creativecommons.org/ns#"
   xmlns:rdf="http://www.w3.org/1999/02/22-rdf-syntax-ns#"
   xmlns:svg="http://www.w3.org/2000/svg"
   xmlns="http://www.w3.org/2000/svg"
   xmlns:sodipodi="http://sodipodi.sourceforge.net/DTD/sodipodi-0.dtd"
   xmlns:inkscape="http://www.inkscape.org/namespaces/inkscape"
   width="66.765945mm"
   height="4.6749945mm"
   viewBox="0 0 66.765945 4.6749945"
   version="1.1"
   id="svg4577"
   inkscape:version="0.92.4 (5da689c313, 2019-01-14)"
   sodipodi:docname="drawing.svg">
  <defs
     id="defs4571" />
  <sodipodi:namedview
     id="base"
     pagecolor="#ffffff"
     bordercolor="#666666"
     borderopacity="1.0"
     inkscape:pageopacity="0.0"
     inkscape:pageshadow="2"
     inkscape:zoom="2.8284271"
     inkscape:cx="108.04941"
     inkscape:cy="5.5525893"
     inkscape:document-units="mm"
     inkscape:current-layer="layer1"
     showgrid="false"
     inkscape:window-width="1920"
     inkscape:window-height="1013"
     inkscape:window-x="-9"
     inkscape:window-y="-9"
     inkscape:window-maximized="1" />
  <metadata
     id="metadata4574">
    <rdf:RDF>
      <cc:Work
         rdf:about="">
        <dc:format>image/svg+xml</dc:format>
        <dc:type
           rdf:resource="http://purl.org/dc/dcmitype/StillImage" />
        <dc:title></dc:title>
      </cc:Work>
    </rdf:RDF>
  </metadata>
  <g
     inkscape:label="Layer 1"
     inkscape:groupmode="layer"
     id="layer1"
     transform="translate(-0.04248589,-0.03401362)">
    <g
       style="font-style:italic;font-variant:normal;font-weight:normal;font-stretch:normal;font-size:10.58333302px;line-height:1.25;font-family:'space mono';-inkscape-font-specification:'space mono Italic';letter-spacing:0px;word-spacing:0px;fill:#000000;fill-opacity:1;stroke:none;stroke-width:0.26458332"
       id="text4581">
      <path
         d="m 2.2301215,2.9520094 v 1.1816677 q 0,0.2549371 -0.096463,0.3651801 -0.096463,0.106798 -0.2549371,0.106798 -0.1584744,0 -0.2583821,-0.106798 -0.096463,-0.110243 -0.096463,-0.3651801 V 2.9520094 H 0.51446396 q -0.25493706,0 -0.36518011,-0.096463 -0.10679796,-0.099908 -0.10679796,-0.2583821 0,-0.1584744 0.10679796,-0.2549371 0.11024305,-0.099908 0.36518011,-0.096463 H 1.5238769 V 1.0675422 q 0,-0.25149193 0.096463,-0.36173498 0.099908,-0.11024305 0.2583821,-0.11024305 0.1584744,0 0.2549371,0.11024305 0.099908,0.10679796 0.099908,0.36173498 l -0.00345,1.1782227 h 1.0094129 q 0.2549371,0 0.361735,0.096463 0.1102431,0.096463 0.1102431,0.2549371 0,0.1584744 -0.1102431,0.2583821 -0.1067979,0.096463 -0.361735,0.096463 z"
         style="font-style:normal;font-variant:normal;font-weight:bold;font-stretch:normal;font-size:7.05555534px;font-family:monospace;-inkscape-font-specification:'monospace, Bold';font-variant-ligatures:normal;font-variant-caps:normal;font-variant-numeric:normal;font-feature-settings:normal;text-align:start;writing-mode:lr-tb;text-anchor:start;fill:#333333;fill-opacity:1;stroke-width:0.26458332"
         id="path5129" />
      <path
         d="M 7.1428273,0.14770177 V 2.9106683 q 0.2239312,0 0.3307292,0.099908 0.106798,0.096463 0.106798,0.251492 0,0.1550293 -0.1102431,0.2549371 -0.106798,0.099908 -0.3272841,0.099908 v 0.2824978 q 0.2239312,0 0.3307292,0.099908 0.106798,0.099908 0.106798,0.2549371 0,0.1550293 -0.1102431,0.254937 -0.106798,0.096463 -0.361735,0.096463 H 6.1609752 q -0.2549371,0 -0.3651802,-0.096463 -0.1067979,-0.099908 -0.1067979,-0.2583821 0,-0.1550293 0.1067979,-0.251492 0.1102431,-0.099908 0.3651802,-0.099908 H 6.4365828 V 3.6169128 H 4.5176647 V 3.0278015 L 6.2092065,0.14770177 Z M 6.4365828,2.9106683 V 1.1743402 L 5.4133895,2.9106683 Z"
         style="font-style:normal;font-variant:normal;font-weight:bold;font-stretch:normal;font-size:7.05555534px;font-family:monospace;-inkscape-font-specification:'monospace, Bold';font-variant-ligatures:normal;font-variant-caps:normal;font-variant-numeric:normal;font-feature-settings:normal;text-align:start;writing-mode:lr-tb;text-anchor:start;fill:#333333;fill-opacity:1;stroke-width:0.26458332"
         id="path5131" />
      <path
         d="m 9.6784174,3.8994106 h 1.5468476 q 0.127469,-0.1033528 0.241157,-0.1033528 0.161919,0 0.254937,0.1067979 0.09646,0.106798 0.09646,0.3651801 V 4.6056552 H 8.6001025 V 3.8580695 Q 10.508685,2.2836609 10.904871,1.8323534 11.104687,1.601532 11.104687,1.3948263 q 0,-0.2583822 -0.227376,-0.45475259 -0.223932,-0.19981554 -0.599447,-0.19981554 -0.3789605,0 -0.6304525,0.22048611 Q 9.5164979,1.0778775 9.4372607,1.3086989 9.3890294,1.4533929 9.302902,1.5154046 q -0.082682,0.062012 -0.2067057,0.062012 -0.144694,0 -0.251492,-0.1033529 -0.1033528,-0.1033529 -0.1033528,-0.2411567 0,-0.2067057 0.1894802,-0.51676429 Q 9.123757,0.40608392 9.4889372,0.22004877 9.8575624,0.03401362 10.288199,0.03401362 q 0.668349,0 1.095541,0.40652126 0.427191,0.40307616 0.427191,0.97840712 0,0.2928331 -0.124023,0.544325 -0.120578,0.2480469 -0.585666,0.6890191 -0.36518,0.3479546 -1.4228246,1.2471245 z"
         style="font-style:normal;font-variant:normal;font-weight:bold;font-stretch:normal;font-size:7.05555534px;font-family:monospace;-inkscape-font-specification:'monospace, Bold';font-variant-ligatures:normal;font-variant-caps:normal;font-variant-numeric:normal;font-feature-settings:normal;text-align:start;writing-mode:lr-tb;text-anchor:start;fill:#333333;fill-opacity:1;stroke-width:0.26458332"
         id="path5133" />
      <path
         d="m 16.11041,1.9839376 v 0.7751465 q 0,0.689019 -0.399631,1.3194715 -0.396186,0.6304525 -1.136882,0.6304525 -0.427192,0 -0.72347,-0.1860352 Q 13.557594,4.3334927 13.292322,3.8305087 13.030495,3.3240797 13.030495,2.7590841 V 1.9839376 q 0,-0.685574 0.396186,-1.31602643 0.396186,-0.63389755 1.136881,-0.63389755 0.423747,0 0.71658,0.18603515 0.296278,0.18603515 0.56155,0.69246417 0.268718,0.50298396 0.268718,1.07142466 z m -0.70969,0 q 0,-0.5753309 -0.320394,-1.00596784 -0.18259,-0.23771159 -0.513319,-0.23771159 -0.320394,0 -0.523654,0.26182723 -0.306614,0.396186 -0.306614,0.9818522 v 0.7751465 q 0,0.578776 0.323839,1.0059678 0.179145,0.2377116 0.513319,0.2377116 0.316949,0 0.52021,-0.2618272 0.306613,-0.396186 0.306613,-0.9818522 z"
         style="font-style:normal;font-variant:normal;font-weight:bold;font-stretch:normal;font-size:7.05555534px;font-family:monospace;-inkscape-font-specification:'monospace, Bold';font-variant-ligatures:normal;font-variant-caps:normal;font-variant-numeric:normal;font-feature-settings:normal;text-align:start;writing-mode:lr-tb;text-anchor:start;fill:#333333;fill-opacity:1;stroke-width:0.26458332"
         id="path5135" />
      <path
         d="m 23.758522,0.85394632 h -1.615749 q -0.01378,0.20670568 -0.106798,0.29972328 -0.09302,0.089573 -0.244602,0.089573 -0.158475,0 -0.258382,-0.106798 -0.09646,-0.1067979 -0.09646,-0.36173497 V 0.14770177 h 3.066135 V 0.85394632 L 23.358891,4.2577006 q -0.07235,0.2135959 -0.161919,0.2859429 -0.08613,0.068902 -0.210151,0.068902 -0.148139,0 -0.254937,-0.1033529 -0.103353,-0.1033528 -0.103353,-0.2377116 0,-0.075792 0.05512,-0.2411566 z"
         style="font-style:normal;font-variant:normal;font-weight:bold;font-stretch:normal;font-size:7.05555534px;font-family:monospace;-inkscape-font-specification:'monospace, Bold';font-variant-ligatures:normal;font-variant-caps:normal;font-variant-numeric:normal;font-feature-settings:normal;text-align:start;writing-mode:lr-tb;text-anchor:start;fill:#333333;fill-opacity:1;stroke-width:0.26458332"
         id="path5137" />
      <path
         d="m 27.989098,0.85394632 h -1.61575 Q 26.359568,1.060652 26.26655,1.1536696 q -0.09302,0.089573 -0.244602,0.089573 -0.158474,0 -0.258382,-0.106798 -0.09646,-0.1067979 -0.09646,-0.36173497 V 0.14770177 h 3.066134 V 0.85394632 L 27.589467,4.2577006 q -0.07235,0.2135959 -0.16192,0.2859429 -0.08613,0.068902 -0.210151,0.068902 -0.148139,0 -0.254937,-0.1033529 -0.103352,-0.1033528 -0.103352,-0.2377116 0,-0.075792 0.05512,-0.2411566 z"
         style="font-style:normal;font-variant:normal;font-weight:bold;font-stretch:normal;font-size:7.05555534px;font-family:monospace;-inkscape-font-specification:'monospace, Bold';font-variant-ligatures:normal;font-variant-caps:normal;font-variant-numeric:normal;font-feature-settings:normal;text-align:start;writing-mode:lr-tb;text-anchor:start;fill:#333333;fill-opacity:1;stroke-width:0.26458332"
         id="path5139" />
      <path
         d="m 32.498728,2.2457649 q 0.313504,0.2135959 0.468533,0.4960937 0.155029,0.2790527 0.155029,0.6270074 0,0.3755153 -0.206705,0.6959092 -0.203261,0.3169488 -0.592557,0.4823134 -0.389296,0.1619195 -1.019748,0.1619195 -0.819933,0 -1.233344,-0.2549371 -0.230822,-0.144694 -0.230822,-0.3445095 0,-0.1515842 0.09991,-0.2549371 0.103353,-0.106798 0.248047,-0.106798 0.09991,0 0.206706,0.068902 0.151584,0.1033528 0.285943,0.1378038 0.206705,0.048231 0.56844,0.048231 0.616672,0 0.89228,-0.1584744 0.275608,-0.1619195 0.275608,-0.4547526 0,-0.217041 -0.16192,-0.4168565 Q 32.095652,2.7694194 31.826934,2.6591763 31.671905,2.5971646 31.30328,2.5730489 31.12758,2.5627136 31.031117,2.466251 30.9381,2.3663432 30.9381,2.2216492 q 0,-0.1515842 0.103353,-0.2549371 0.103353,-0.1033528 0.261827,-0.1033528 0.3514,0 0.375515,-0.00345 0.137804,-0.01378 0.275608,-0.089573 0.137804,-0.075792 0.220486,-0.2067057 0.08613,-0.1343587 0.08613,-0.2756077 0,-0.2239312 -0.199815,-0.38585064 -0.196371,-0.16536458 -0.592556,-0.16536458 -0.509875,0 -0.778592,0.29627822 -0.07924,0.086127 -0.127469,0.110243 -0.07235,0.037896 -0.161919,0.037896 -0.144694,0 -0.248047,-0.1033529 -0.103353,-0.10335284 -0.103353,-0.25493704 0,-0.23771158 0.316949,-0.46164278 0.461643,-0.32728406 1.154107,-0.32728406 0.654568,0 1.050754,0.3720703 0.396186,0.3720703 0.396186,0.89572478 0,0.2721626 -0.117133,0.5098741 -0.117133,0.2342665 -0.3514,0.4340821 z"
         style="font-style:normal;font-variant:normal;font-weight:bold;font-stretch:normal;font-size:7.05555534px;font-family:monospace;-inkscape-font-specification:'monospace, Bold';font-variant-ligatures:normal;font-variant-caps:normal;font-variant-numeric:normal;font-feature-settings:normal;text-align:start;writing-mode:lr-tb;text-anchor:start;fill:#333333;fill-opacity:1;stroke-width:0.26458332"
         id="path5141" />
      <path
         d="M 39.357912,0.85394632 V 1.6945496 q 0.392741,-0.1240234 0.713134,-0.1240234 0.651123,0 1.08176,0.4444173 0.430637,0.4444173 0.430637,1.1472167 0,0.7234701 -0.437527,1.1368815 -0.434082,0.4099664 -1.333252,0.4099664 -0.792372,0 -1.254014,-0.2997233 -0.268718,-0.1722548 -0.268718,-0.396186 0,-0.1412489 0.103353,-0.2446018 0.106798,-0.1067979 0.251492,-0.1067979 0.120578,0 0.261827,0.1171332 0.141249,0.1136881 0.296278,0.1584744 0.220487,0.065457 0.564996,0.065457 0.640788,0 0.875054,-0.2032606 0.234267,-0.2067057 0.234267,-0.6304525 0,-0.4168565 -0.227377,-0.6545681 -0.223931,-0.2377116 -0.578776,-0.2377116 -0.382405,0 -0.871609,0.2480469 -0.110243,0.058567 -0.192925,0.058567 -0.151584,0 -0.254937,-0.110243 -0.09991,-0.1102431 -0.09991,-0.285943 V 0.14770177 h 2.160075 q 0.254937,0 0.361735,0.0999078 0.110243,0.0964627 0.110243,0.25493706 0,0.15502929 -0.110243,0.25493706 -0.106798,0.0964627 -0.361735,0.0964627 z"
         style="font-style:normal;font-variant:normal;font-weight:bold;font-stretch:normal;font-size:7.05555534px;font-family:monospace;-inkscape-font-specification:'monospace, Bold';font-variant-ligatures:normal;font-variant-caps:normal;font-variant-numeric:normal;font-feature-settings:normal;text-align:start;writing-mode:lr-tb;text-anchor:start;fill:#333333;fill-opacity:1;stroke-width:0.26458332"
         id="path5143" />
      <path
         d="M 45.218021,0.14770177 V 2.9106683 q 0.223931,0 0.330729,0.099908 0.106798,0.096463 0.106798,0.251492 0,0.1550293 -0.110243,0.2549371 -0.106798,0.099908 -0.327284,0.099908 v 0.2824978 q 0.223931,0 0.330729,0.099908 0.106798,0.099908 0.106798,0.2549371 0,0.1550293 -0.110243,0.254937 -0.106798,0.096463 -0.361735,0.096463 h -0.947401 q -0.254937,0 -0.36518,-0.096463 -0.106798,-0.099908 -0.106798,-0.2583821 0,-0.1550293 0.106798,-0.251492 0.110243,-0.099908 0.36518,-0.099908 h 0.275608 V 3.6169128 H 42.592859 V 3.0278015 L 44.2844,0.14770177 Z M 44.511777,2.9106683 V 1.1743402 l -1.023194,1.7363281 z"
         style="font-style:normal;font-variant:normal;font-weight:bold;font-stretch:normal;font-size:7.05555534px;font-family:monospace;-inkscape-font-specification:'monospace, Bold';font-variant-ligatures:normal;font-variant-caps:normal;font-variant-numeric:normal;font-feature-settings:normal;text-align:start;writing-mode:lr-tb;text-anchor:start;fill:#333333;fill-opacity:1;stroke-width:0.26458332"
         id="path5145" />
      <path
         d="m 49.421036,2.2457649 q 0.313504,0.2135959 0.468533,0.4960937 0.155029,0.2790527 0.155029,0.6270074 0,0.3755153 -0.206705,0.6959092 -0.203261,0.3169488 -0.592557,0.4823134 -0.389296,0.1619195 -1.019748,0.1619195 -0.819933,0 -1.233344,-0.2549371 -0.230822,-0.144694 -0.230822,-0.3445095 0,-0.1515842 0.09991,-0.2549371 0.103353,-0.106798 0.248047,-0.106798 0.09991,0 0.206706,0.068902 0.151584,0.1033528 0.285943,0.1378038 0.206705,0.048231 0.56844,0.048231 0.616672,0 0.89228,-0.1584744 0.275608,-0.1619195 0.275608,-0.4547526 0,-0.217041 -0.16192,-0.4168565 -0.158474,-0.2032606 -0.427192,-0.3135037 -0.155029,-0.062012 -0.523654,-0.086127 -0.1757,-0.010335 -0.272163,-0.1067979 -0.09302,-0.099908 -0.09302,-0.2446018 0,-0.1515842 0.103353,-0.2549371 0.103353,-0.1033528 0.261827,-0.1033528 0.3514,0 0.375515,-0.00345 0.137804,-0.01378 0.275608,-0.089573 0.137804,-0.075792 0.220486,-0.2067057 0.08613,-0.1343587 0.08613,-0.2756077 0,-0.2239312 -0.199815,-0.38585064 -0.196371,-0.16536458 -0.592557,-0.16536458 -0.509874,0 -0.778591,0.29627822 -0.07924,0.086127 -0.127469,0.110243 -0.07235,0.037896 -0.161919,0.037896 -0.144694,0 -0.248047,-0.1033529 -0.103353,-0.10335284 -0.103353,-0.25493704 0,-0.23771158 0.316949,-0.46164278 0.461643,-0.32728406 1.154107,-0.32728406 0.654568,0 1.050754,0.3720703 0.396186,0.3720703 0.396186,0.89572478 0,0.2721626 -0.117133,0.5098741 -0.117133,0.2342665 -0.3514,0.4340821 z"
         style="font-style:normal;font-variant:normal;font-weight:bold;font-stretch:normal;font-size:7.05555534px;font-family:monospace;-inkscape-font-specification:'monospace, Bold';font-variant-ligatures:normal;font-variant-caps:normal;font-variant-numeric:normal;font-feature-settings:normal;text-align:start;writing-mode:lr-tb;text-anchor:start;fill:#333333;fill-opacity:1;stroke-width:0.26458332"
         id="path5147" />
      <path
         d="m 57.868411,2.7521939 q -0.265273,0.2273763 -0.485759,0.3238389 -0.220486,0.093018 -0.465088,0.093018 -0.56844,0 -0.995632,-0.4547526 -0.423747,-0.4547526 -0.423747,-1.1299913 0,-0.5270996 0.292833,-0.95773647 0.399631,-0.59255641 1.126546,-0.59255641 0.52021,0 0.909505,0.31350368 0.389296,0.31005858 0.571886,0.8991699 0.18259,0.5856662 0.18259,1.2230089 0,1.0817599 -0.837158,1.736328 -0.647678,0.502984 -1.419379,0.502984 -0.427192,0 -0.661458,-0.1722548 -0.158475,-0.1136882 -0.158475,-0.2997233 0,-0.1515842 0.09991,-0.251492 0.103353,-0.1033528 0.251492,-0.1033528 0.08268,0 0.186035,0.051676 0.134359,0.068902 0.282498,0.068902 0.53399,0 0.985297,-0.361735 0.451308,-0.3651801 0.558106,-0.8888346 z M 57.768503,1.6394281 Q 57.654815,1.1502245 57.430883,0.9469639 57.210397,0.74025817 56.924454,0.74025817 q -0.299723,0 -0.509874,0.23082139 -0.21015,0.22737634 -0.21015,0.60633684 0,0.3961859 0.21015,0.6407877 0.213596,0.2446018 0.485759,0.2446018 0.478868,0 0.868164,-0.8233778 z"
         style="font-style:normal;font-variant:normal;font-weight:bold;font-stretch:normal;font-size:7.05555534px;font-family:monospace;-inkscape-font-specification:'monospace, Bold';font-variant-ligatures:normal;font-variant-caps:normal;font-variant-numeric:normal;font-feature-settings:normal;text-align:start;writing-mode:lr-tb;text-anchor:start;fill:#333333;fill-opacity:1;stroke-width:0.26458332"
         id="path5149" />
      <path
         d="M 61.465089,0.03401362 V 3.8994106 h 0.713134 q 0.254937,0 0.361735,0.099908 0.110243,0.096463 0.110243,0.2549371 0,0.1550293 -0.110243,0.254937 -0.106798,0.096463 -0.361735,0.096463 h -2.132514 q -0.254937,0 -0.36518,-0.096463 -0.106798,-0.099908 -0.106798,-0.2583821 0,-0.1550293 0.106798,-0.251492 0.110243,-0.099908 0.36518,-0.099908 h 0.713135 V 0.95385409 L 60.128392,1.1192187 q -0.151585,0.041341 -0.227377,0.041341 -0.134358,0 -0.234266,-0.1067979 -0.09646,-0.106798 -0.09646,-0.2618273 0,-0.14124891 0.07235,-0.2204861 0.07235,-0.0826823 0.303169,-0.14469401 z"
         style="font-style:normal;font-variant:normal;font-weight:bold;font-stretch:normal;font-size:7.05555534px;font-family:monospace;-inkscape-font-specification:'monospace, Bold';font-variant-ligatures:normal;font-variant-caps:normal;font-variant-numeric:normal;font-feature-settings:normal;text-align:start;writing-mode:lr-tb;text-anchor:start;fill:#333333;fill-opacity:1;stroke-width:0.26458332"
         id="path5151" />
      <path
         d="M 66.370907,0.14770177 V 2.9106683 q 0.223931,0 0.330729,0.099908 0.106798,0.096463 0.106798,0.251492 0,0.1550293 -0.110243,0.2549371 -0.106798,0.099908 -0.327284,0.099908 v 0.2824978 q 0.223931,0 0.330729,0.099908 0.106798,0.099908 0.106798,0.2549371 0,0.1550293 -0.110243,0.254937 -0.106798,0.096463 -0.361735,0.096463 h -0.947402 q -0.254937,0 -0.36518,-0.096463 -0.106798,-0.099908 -0.106798,-0.2583821 0,-0.1550293 0.106798,-0.251492 0.110243,-0.099908 0.36518,-0.099908 h 0.275608 V 3.6169128 H 63.745744 V 3.0278015 L 65.437286,0.14770177 Z M 65.664662,2.9106683 V 1.1743402 l -1.023193,1.7363281 z"
         style="font-style:normal;font-variant:normal;font-weight:bold;font-stretch:normal;font-size:7.05555534px;font-family:monospace;-inkscape-font-specification:'monospace, Bold';font-variant-ligatures:normal;font-variant-caps:normal;font-variant-numeric:normal;font-feature-settings:normal;text-align:start;writing-mode:lr-tb;text-anchor:start;fill:#333333;fill-opacity:1;stroke-width:0.26458332"
         id="path5153" />
    </g>
  </g>
</svg>
