<?xml version="1.0" encoding="UTF-8" standalone="no"?>
<svg
   xmlns:dc="http://purl.org/dc/elements/1.1/"
   xmlns:cc="http://creativecommons.org/ns#"
   xmlns:rdf="http://www.w3.org/1999/02/22-rdf-syntax-ns#"
   xmlns:svg="http://www.w3.org/2000/svg"
   xmlns="http://www.w3.org/2000/svg"
   xmlns:xlink="http://www.w3.org/1999/xlink"
   xmlns:sodipodi="http://sodipodi.sourceforge.net/DTD/sodipodi-0.dtd"
   xmlns:inkscape="http://www.inkscape.org/namespaces/inkscape"
   width="500"
   height="300"
   viewBox="0 0 500 300"
   version="1.1"
   id="svg2749"
   sodipodi:docname="quotes-app.svg"
   inkscape:version="0.92.4 (5da689c313, 2019-01-14)">
  <metadata
     id="metadata2753">
    <rdf:RDF>
      <cc:Work
         rdf:about="">
        <dc:format>image/svg+xml</dc:format>
        <dc:type
           rdf:resource="http://purl.org/dc/dcmitype/StillImage" />
      </cc:Work>
    </rdf:RDF>
  </metadata>
  <sodipodi:namedview
     pagecolor="#ffffff"
     bordercolor="#666666"
     borderopacity="1"
     objecttolerance="10"
     gridtolerance="10"
     guidetolerance="10"
     inkscape:pageopacity="0"
     inkscape:pageshadow="2"
     inkscape:window-width="1920"
     inkscape:window-height="1013"
     id="namedview2751"
     showgrid="false"
     inkscape:zoom="0.678"
     inkscape:cx="250"
     inkscape:cy="150"
     inkscape:window-x="-9"
     inkscape:window-y="-9"
     inkscape:window-maximized="1"
     inkscape:current-layer="svg2749" />
  <defs
     id="defs2745">
    <pattern
       inkscape:collect="always"
       xlink:href="#quote"
       id="pattern3298"
       patternTransform="scale(2.468573)" />
    <pattern
       id="quote"
       x="0"
       y="0"
       width="80"
       height="80"
       patternUnits="userSpaceOnUse">
      <g
         fill-rule="evenodd"
         id="g2742">
        <g
           id="quotes"
           fill="#77b1a9"
           fill-rule="nonzero">
          <path
             d="M11 0l5 20H6l5-20zm42 31a3 3 0 1 0 0-6 3 3 0 0 0 0 6zM0 72h40v4H0v-4zm0-8h31v4H0v-4zm20-16h20v4H20v-4zM0 56h40v4H0v-4zm63-25a3 3 0 1 0 0-6 3 3 0 0 0 0 6zm10 0a3 3 0 1 0 0-6 3 3 0 0 0 0 6zM53 41a3 3 0 1 0 0-6 3 3 0 0 0 0 6zm10 0a3 3 0 1 0 0-6 3 3 0 0 0 0 6zm10 0a3 3 0 1 0 0-6 3 3 0 0 0 0 6zm-30 0a3 3 0 1 0 0-6 3 3 0 0 0 0 6zm-28-8a5 5 0 0 0-10 0h10zm10 0a5 5 0 0 1-10 0h10zM56 5a5 5 0 0 0-10 0h10zm10 0a5 5 0 0 1-10 0h10zm-3 46a3 3 0 1 0 0-6 3 3 0 0 0 0 6zm10 0a3 3 0 1 0 0-6 3 3 0 0 0 0 6zM21 0l5 20H16l5-20zm43 64v-4h-4v4h-4v4h4v4h4v-4h4v-4h-4zM36 13h4v4h-4v-4zm4 4h4v4h-4v-4zm-4 4h4v4h-4v-4zm8-8h4v4h-4v-4z"
             id="path2739" />
        </g>
      </g>
    </pattern>
  </defs>
  <rect
     id="rect1"
     x="0"
     y="0"
     width="500"
     height="300"
     fill="#6d6e6a" />
  <rect
     id="rect2"
     x="0"
     y="0"
     width="500"
     height="300"
     style="fill:url(#pattern3298)" />
</svg>
