<?xml version="1.0" encoding="UTF-8" standalone="no"?>
<svg
   xmlns:dc="http://purl.org/dc/elements/1.1/"
   xmlns:cc="http://creativecommons.org/ns#"
   xmlns:rdf="http://www.w3.org/1999/02/22-rdf-syntax-ns#"
   xmlns:svg="http://www.w3.org/2000/svg"
   xmlns="http://www.w3.org/2000/svg"
   xmlns:xlink="http://www.w3.org/1999/xlink"
   xmlns:sodipodi="http://sodipodi.sourceforge.net/DTD/sodipodi-0.dtd"
   xmlns:inkscape="http://www.inkscape.org/namespaces/inkscape"
   width="500"
   height="300"
   viewBox="0 0 500 300"
   version="1.1"
   id="svg2172"
   sodipodi:docname="twitch-app.svg"
   inkscape:version="0.92.4 (5da689c313, 2019-01-14)">
  <metadata
     id="metadata2176">
    <rdf:RDF>
      <cc:Work
         rdf:about="">
        <dc:format>image/svg+xml</dc:format>
        <dc:type
           rdf:resource="http://purl.org/dc/dcmitype/StillImage" />
      </cc:Work>
    </rdf:RDF>
  </metadata>
  <sodipodi:namedview
     pagecolor="#ffffff"
     bordercolor="#666666"
     borderopacity="1"
     objecttolerance="10"
     gridtolerance="10"
     guidetolerance="10"
     inkscape:pageopacity="0"
     inkscape:pageshadow="2"
     inkscape:window-width="1920"
     inkscape:window-height="1013"
     id="namedview2174"
     showgrid="false"
     inkscape:zoom="0.678"
     inkscape:cx="250"
     inkscape:cy="150"
     inkscape:window-x="-9"
     inkscape:window-y="-9"
     inkscape:window-maximized="1"
     inkscape:current-layer="svg2172" />
  <defs
     id="defs2168">
    <pattern
       inkscape:collect="always"
       xlink:href="#twitch"
       id="pattern2721"
       patternTransform="scale(2.1204915)" />
    <pattern
       id="twitch"
       x="0"
       y="0"
       width="60"
       height="96"
       patternUnits="userSpaceOnUse">
      <g
         fill-rule="evenodd"
         id="g2165">
        <g
           fill="#fff"
           id="g2163">
          <path
             d="M36 10a6 6 0 0 1 12 0v12a6 6 0 0 1-6 6 6 6 0 0 0-6 6 6 6 0 0 1-12 0 6 6 0 0 0-6-6 6 6 0 0 1-6-6V10a6 6 0 1 1 12 0 6 6 0 0 0 12 0zm24 78a6 6 0 0 1-6-6 6 6 0 0 0-6-6 6 6 0 0 1-6-6V58a6 6 0 1 1 12 0 6 6 0 0 0 6 6v24zM0 88V64a6 6 0 0 0 6-6 6 6 0 0 1 12 0v12a6 6 0 0 1-6 6 6 6 0 0 0-6 6 6 6 0 0 1-6 6z"
             id="path2161" />
        </g>
      </g>
    </pattern>
  </defs>
  <rect
     id="rect1"
     x="0"
     y="0"
     width="500"
     height="300"
     fill="#815fc0" />
  <rect
     id="rect2"
     x="0"
     y="0"
     width="500"
     height="300"
     style="fill:url(#pattern2721)" />
</svg>
